<svg xmlns="http://www.w3.org/2000/svg" viewBox="0 0 68 60" x="0px" y="0px"><path fill="#000000" d="M360,458 L360,474 C360,475.104569 359.104569,476 358,476 C356.895431,476 356,475.104569 356,474 L356,458 L336,458 L336,474 C336,475.104569 335.104569,476 334,476 C332.895431,476 332,475.104569 332,474 L332,458 C331.324964,458 330.695474,457.659484 330.326061,457.094499 L319.5,440.536994 L308.673939,457.094499 C308.499666,457.361034 308.267512,457.577613 308,457.732052 L308,474 C308,475.104569 307.104569,476 306,476 C304.895431,476 304,475.104569 304,474 L304,458 L298,458 C296.410686,458 295.45631,456.235708 296.326061,454.905501 L313.314176,428.923678 C313.659035,428.381606 314.260851,428 315,428 L345,428 C345.675036,428 346.304526,428.340516 346.673939,428.905501 L363.673939,454.905501 C364.54369,456.235708 363.589314,458 362,458 L360,458 Z M318.697265,432 L333.081881,454 L358.302735,454 L343.918119,432 L318.697265,432 Z M317.110427,436.882353 L315,433.654641 L301.697265,454 L305.918119,454 L317.110427,436.882353 Z M350.076923,452 L336.076923,452 C335.401887,452 334.772397,451.659484 334.402984,451.094499 L325.249138,437.094499 C324.379387,435.764292 325.333763,434 326.923077,434 L340.923077,434 C341.598113,434 342.227603,434.340516 342.597016,434.905501 L351.750862,448.905501 C352.620613,450.235708 351.666237,452 350.076923,452 Z M346.379658,448 L339.841196,438 L330.620342,438 L337.158804,448 L346.379658,448 Z" transform="translate(-296 -428)"/></svg>