<svg xmlns="http://www.w3.org/2000/svg" viewBox="0 0 68 63.75" x="0px" y="0px"><path fill="#12C023" d="M222,815 C220.895431,815 220,814.104569 220,813 C220,811.895431 220.895431,811 222,811 L230,811 C230.668706,811 231.293169,811.334202 231.664101,811.8906 L243.664101,829.8906 C244.550174,831.219709 243.597391,833 242,833 L178,833 C176.402609,833 175.449826,831.219709 176.335899,829.8906 L188.335899,811.8906 C188.706831,811.334202 189.331294,811 190,811 L192,811 C193.104569,811 194,811.895431 194,813 C194,814.104569 193.104569,815 192,815 L191.070368,815 L181.737034,829 L238.262966,829 L228.929632,815 L222,815 Z M212,809 L202,809 L202,815 C202,816.104569 201.104569,817 200,817 C198.895431,817 198,816.104569 198,815 L198,809 L196,809 C194.895431,809 194,808.104569 194,807 C194,805.895431 194.895431,805 196,805 L218,805 C219.104569,805 220,805.895431 220,807 C220,808.104569 219.104569,809 218,809 L216,809 L216,815 C216,816.104569 215.104569,817 214,817 C212.895431,817 212,816.104569 212,815 L212,809 Z M227,796 C223.134007,796 220,792.865993 220,789 C220,785.134007 223.134007,782 227,782 C230.865993,782 234,785.134007 234,789 C234,792.865993 230.865993,796 227,796 Z M227,792 C228.656854,792 230,790.656854 230,789 C230,787.343146 228.656854,786 227,786 C225.343146,786 224,787.343146 224,789 C224,790.656854 225.343146,792 227,792 Z" transform="translate(-176 -782)"/></svg>