<svg xmlns="http://www.w3.org/2000/svg" xmlns:xlink="http://www.w3.org/1999/xlink" version="1.1" x="0px" y="0px" viewBox="0 0 100 125" enable-background="new 0 0 100 100" xml:space="preserve"><path d="M29.264,15.42c2.964,0,8.324,1.354,17.019,9.504l4.31,4.044l4.244-4.107c6.037-5.84,12.457-9.467,16.762-9.467  c5.804,0,10.377,1.89,14.837,6.127c4.201,3.994,6.518,9.304,6.518,14.951c0,5.651-2.312,10.965-6.561,15.001  c-0.346,0.336-18.611,19.108-33.919,34.839c-0.721,0.653-1.547,0.755-1.98,0.755s-1.25-0.098-1.967-0.73  c-3.73-3.951-30.763-32.578-33.906-35.572c-4.208-3.998-6.521-9.312-6.521-14.962c0-5.646,2.317-10.958,6.524-14.955  C18.713,16.953,23.503,15.42,29.264,15.42 M29.264,9.659c-7.233,0-13.608,2.06-18.915,7.114c-11.064,10.507-11.064,27.551,0,38.066  c3.157,3.006,33.816,35.489,33.816,35.489c1.748,1.667,4.04,2.497,6.327,2.497s4.573-0.83,6.32-2.497c0,0,33.533-34.47,33.89-34.816  c11.064-10.518,11.064-27.562,0-38.069c-5.487-5.221-11.624-7.811-19.104-7.811c-7.145,0-15.118,5.426-21.072,11.187  C44.382,15.059,36.657,9.659,29.264,9.659L29.264,9.659z" fill="#E21010"/></svg>