<svg xmlns="http://www.w3.org/2000/svg" viewBox="0 0 68 57.5" x="0px" y="0px"><path fill="#000000" fill-rule="evenodd" d="M360.274465,327.910544 L360.554716,327.617555 C361.31822,326.819347 362.584237,326.791213 363.382445,327.554716 C364.180653,328.31822 364.208787,329.584237 363.445284,330.382445 L341.445284,353.382445 C341.067981,353.776898 340.545849,354 340,354 L306.997166,354 C300.923595,354 296,349.075155 296,343.00077 L296,341.99923 C296,339.015423 297.187601,336.309198 299.115946,334.327708 C299.220677,334.033423 299.3961,333.759408 299.641184,333.532479 L326.641184,308.532479 C327.010882,308.190165 327.496159,308 328,308 L362,308 C363.760463,308 364.662156,310.110261 363.445284,311.382445 L360.644234,314.310815 C360.621836,314.373061 360.598216,314.439307 360.573481,314.50939 C360.352005,315.136904 360.129974,315.8252 359.923048,316.549442 C359.558971,317.823711 359.283074,319.06525 359.130604,320.208772 C359.044477,320.854727 359,321.455161 359,322 C359,323.505829 359.334808,325.179868 359.897367,326.867544 C360.018953,327.232304 360.145807,327.581242 360.274465,327.910544 Z M357.287486,331.033296 C357.260461,330.988397 357.23498,330.942096 357.211146,330.894427 C356.921712,330.31556 356.510515,329.3561 356.102633,328.132456 C355.415192,326.070132 355,323.994171 355,322 C355,321.391782 355.03951,320.7549 355.114854,320.091531 L341.445284,334.382445 C341.067981,334.776898 340.545849,335 340,335 L339.758119,335 C339.707701,335.134804 339.645293,335.305923 339.573481,335.50939 C339.352005,336.136904 339.129974,336.8252 338.923048,337.549442 C338.558971,338.823711 338.283074,340.06525 338.130604,341.208772 C338.044477,341.854727 338,342.455161 338,343 C338,344.505829 338.334808,346.179868 338.897367,347.867544 C339.097705,348.468558 339.312343,349.026618 339.52579,349.524661 C339.533599,349.542883 339.541284,349.560745 339.548841,349.578243 L357.287486,331.033296 Z M335.521842,335 L306.997166,335 C303.132201,335 300,338.133167 300,341.99923 L300,343.00077 C300,346.866243 303.132962,350 306.997166,350 L335.407643,350 C335.307074,349.728595 335.20475,349.438805 335.102633,349.132456 C334.415192,347.070132 334,344.994171 334,343 C334,342.267061 334.057375,341.492495 334.165692,340.680117 C334.346556,339.323639 334.663251,337.898511 335.076952,336.450558 C335.22026,335.948982 335.369804,335.463698 335.521842,335 Z" transform="translate(-296 -308)"/><text x="0" y="61" fill="#000000" font-size="5px" font-weight="bold" font-family="'Helvetica Neue', Helvetica, Arial-Unicode, Arial, Sans-serif">Created by Andrejs Kirma</text><text x="0" y="66" fill="#000000" font-size="5px" font-weight="bold" font-family="'Helvetica Neue', Helvetica, Arial-Unicode, Arial, Sans-serif">from the Noun Project</text></svg>