<svg xmlns="http://www.w3.org/2000/svg" viewBox="0 0 68 51.25" x="0px" y="0px"><path fill="#000000" d="M683,73 L683,72 C683,70.9176747 683.860997,70.0317268 684.94288,70.0008158 L711.944228,69.2007773 C716.937566,69.0581105 721,72.999653 721,77.9950294 L721,91 L723.622498,105.685706 C724.030625,107.998424 722.354294,110 720.000385,110 L714.999615,110 C712.927371,110 711.042472,108.415791 710.683364,106.380847 L708.307487,92.9175465 L684.920064,91.9984019 C683.84745,91.9554974 683,91.0734719 683,90 L683,89 L673,89 C671.895431,89 671,88.1045695 671,87 L671,83 L657.007484,83 C656.44892,83 656,82.5480902 656,81.9906311 L656,80.0093689 C656,79.4433532 656.451066,79 657.007484,79 L671,79 L671,75 C671,73.8954305 671.895431,73 673,73 L683,73 Z M683,85 L683,77 L675,77 L675,85 L683,85 Z M689.998502,81 L701.001498,81 C701.552511,81 702,80.5480902 702,79.9906311 L702,78.0093689 C702,77.4433532 701.552955,77 701.001498,77 L689.998502,77 C689.447489,77 689,77.4519098 689,78.0093689 L689,79.9906311 C689,80.5566468 689.447045,81 689.998502,81 Z" transform="translate(-656 -69)"/></svg>